<svg width="146" height="35" viewBox="0 0 146 35" fill="none" xmlns="http://www.w3.org/2000/svg">
<path d="M2.85 27C2.75 27 2.67 26.99 2.61 26.97C2.51 26.95 2.44 26.92 2.4 26.88C2.22 26.72 2.13 26.43 2.13 26.01V25.59C2.13 25.39 2.16 25.23 2.22 25.11C2.24 25.05 2.3 24.98 2.4 24.9L2.49 24.81L2.58 24.72C2.66 24.62 2.7 24.54 2.7 24.48C2.7 24.38 2.63 24.28 2.49 24.18L2.31 24.06C2.25 24.02 2.2 23.97 2.16 23.91C2.12 23.85 2.1 23.75 2.1 23.61L2.07 23.1L2.04 22.59L2.07 22.05L2.1 21.48V20.55L2.07 19.59V19.32L2.1 19.02C2.12 18.76 2.13 18.54 2.13 18.36L2.1 17.85L2.04 17.31C2.04 17.15 2.07 16.9 2.13 16.56C2.19 16.22 2.22 15.93 2.22 15.69C2.22 15.57 2.21 15.41 2.19 15.21L2.16 14.94V14.7C2.16 14.52 2.17 14.3 2.19 14.04C2.23 13.78 2.25 13.56 2.25 13.38C2.25 13.24 2.22 12.96 2.16 12.54C2.1 12.1 2.07 11.74 2.07 11.46V10.23C2.09 10.11 2.1 10.02 2.1 9.96C2.1 9.86 2.09 9.73 2.07 9.57C2.05 9.41 2.04 9.3 2.04 9.24C2.04 8.76 2.21 8.52 2.55 8.52H2.82C2.9 8.52 3.03 8.51 3.21 8.49L3.42 8.46H3.6C3.74 8.46 3.93 8.47 4.17 8.49L4.44 8.52H4.74C4.96 8.52 5.13 8.54 5.25 8.58C5.45 8.62 5.6 8.7 5.7 8.82C5.82 8.94 5.92 9.12 6 9.36C6.08 9.54 6.15 9.74 6.21 9.96C6.31 10.36 6.45 10.72 6.63 11.04C6.71 11.18 6.81 11.38 6.93 11.64L7.05 11.97L7.17 12.27L7.35 12.51L7.5 12.75C7.66 12.93 7.77 13.08 7.83 13.2C7.91 13.36 7.98 13.56 8.04 13.8L8.22 14.43C8.38 14.91 8.53 15.28 8.67 15.54L9.03 16.08C9.17 16.32 9.28 16.51 9.36 16.65C9.5 16.93 9.66 17.3 9.84 17.76L10.14 18.45L10.44 19.14C10.6 19.5 10.81 19.85 11.07 20.19C11.17 20.31 11.26 20.37 11.34 20.37C11.42 20.37 11.49 20.3 11.55 20.16C11.59 20.06 11.62 19.93 11.64 19.77C11.66 19.41 11.67 19.17 11.67 19.05C11.67 18.91 11.64 18.62 11.58 18.18C11.5 17.74 11.46 17.42 11.46 17.22C11.46 16.98 11.49 16.7 11.55 16.38L11.61 16.02C11.63 15.9 11.64 15.77 11.64 15.63L11.61 15.18L11.58 14.73L11.55 14.46L11.49 14.19C11.47 13.95 11.46 13.75 11.46 13.59C11.46 13.11 11.59 12.75 11.85 12.51C12.17 12.25 12.33 12.03 12.33 11.85C12.33 11.65 12.22 11.42 12 11.16L11.88 10.98L11.73 10.8C11.65 10.66 11.61 10.51 11.61 10.35V10.02L11.64 9.9V9.72L11.61 9.48V9.18C11.61 8.8 11.76 8.59 12.06 8.55H12.75L13.26 8.52L13.62 8.49C13.98 8.49 14.16 8.68 14.16 9.06C14.16 9.16 14.15 9.31 14.13 9.51V9.75L14.1 9.96L14.13 10.23L14.19 10.5C14.23 10.7 14.25 10.86 14.25 10.98C14.25 11.08 14.22 11.28 14.16 11.58C14.1 11.88 14.07 12.1 14.07 12.24L14.1 12.87L14.13 13.47L14.16 14.58L14.13 15.69L14.16 16.05L14.19 16.38C14.21 16.68 14.22 16.92 14.22 17.1C14.22 17.22 14.19 17.44 14.13 17.76L14.1 18.12L14.07 18.42C14.05 18.92 14.06 19.35 14.1 19.71L14.16 20.01L14.22 20.31C14.26 20.57 14.28 20.78 14.28 20.94V22.35L14.25 23.73V24.45L14.22 25.14C14.2 25.66 14.14 26.12 14.04 26.52C14 26.78 13.85 26.91 13.59 26.91H13.44L13.26 26.88C13.02 26.86 12.67 26.85 12.21 26.85H11.82C11.66 26.87 11.56 26.88 11.52 26.88C11.28 26.88 11.11 26.8 11.01 26.64C10.97 26.58 10.93 26.49 10.89 26.37L10.8 26.13L10.65 25.8L10.5 25.5L10.26 24.96L10.02 24.45C9.96 24.29 9.85 24.1 9.69 23.88L9.48 23.61L9.3 23.34C9.22 23.18 9.13 22.99 9.03 22.77L8.79 22.2C8.69 22.02 8.64 21.87 8.64 21.75C8.64 21.63 8.71 21.47 8.85 21.27C8.97 21.09 9.03 20.96 9.03 20.88C9.03 20.62 8.87 20.42 8.55 20.28C8.09 20.08 7.77 19.81 7.59 19.47L7.35 18.9L7.08 18.3L6.75 17.76L6.48 17.16L6.21 16.59C6.11 16.37 6.04 16.18 6 16.02L5.91 15.72L5.79 15.45C5.77 15.37 5.72 15.29 5.64 15.21L5.46 14.97L5.37 14.82L5.28 14.64C5.2 14.52 5.13 14.46 5.07 14.46C4.99 14.46 4.92 14.51 4.86 14.61C4.82 14.71 4.79 14.82 4.77 14.94C4.75 15.08 4.74 15.33 4.74 15.69L4.71 16.02L4.68 16.38L4.65 17.13L4.68 17.52L4.74 17.88C4.8 18.22 4.83 18.48 4.83 18.66C4.83 18.84 4.81 19.06 4.77 19.32L4.71 19.62L4.68 19.92L4.71 20.13L4.74 20.4C4.76 20.64 4.77 20.85 4.77 21.03C4.77 21.25 4.75 21.55 4.71 21.93L4.68 22.35C4.66 22.53 4.65 22.69 4.65 22.83L4.68 23.19L4.71 23.58C4.77 23.92 4.8 24.19 4.8 24.39L4.74 25.17L4.68 25.95L4.71 26.16V26.43C4.71 26.63 4.67 26.77 4.59 26.85C4.49 26.95 4.34 27 4.14 27L3.81 26.97C3.65 26.95 3.54 26.94 3.48 26.94L3.18 26.97L2.85 27ZM4.02 22.38C4.08 22.38 4.14 22.36 4.2 22.32C4.24 22.26 4.26 22.21 4.26 22.17C4.26 21.93 4.14 21.81 3.9 21.81C3.72 21.81 3.63 21.89 3.63 22.05L3.66 22.14L3.72 22.23C3.8 22.33 3.9 22.38 4.02 22.38ZM59.5971 27C59.4571 27 59.2571 26.97 58.9971 26.91C58.7371 26.87 58.5471 26.85 58.4271 26.85H58.2471L58.0971 26.88H57.7971C57.6371 26.88 57.4871 26.82 57.3471 26.7C57.2471 26.6 57.1571 26.46 57.0771 26.28C56.9971 26.14 56.9271 25.97 56.8671 25.77L56.8071 25.5L56.7471 25.29C56.6671 25.07 56.5871 24.75 56.5071 24.33L56.2971 23.37L56.1471 22.86L55.9671 22.32C55.8671 21.96 55.8171 21.65 55.8171 21.39C55.7971 21.17 55.7371 20.89 55.6371 20.55C55.6171 20.47 55.5571 20.32 55.4571 20.1L55.3671 19.86L55.2771 19.62C55.2371 19.46 55.1771 19.16 55.0971 18.72L55.0071 18.18L54.8871 17.64C54.8271 17.4 54.7271 17.08 54.5871 16.68L54.2571 15.72L54.1971 15.3L54.1071 14.88L53.9871 14.46L53.8371 14.04L53.7471 13.53L53.6271 13.08L53.5071 12.66L53.3871 12.24L53.2671 11.7L53.2071 11.46L53.1771 11.19L53.0271 10.74L52.8771 10.29L52.6371 9.33L52.5771 9.15L52.5471 8.94C52.5471 8.66 52.7171 8.52 53.0571 8.52L53.2971 8.55L53.5371 8.58C53.6771 8.58 53.8471 8.56 54.0471 8.52L54.5571 8.4L54.7671 8.37C55.0271 8.37 55.2271 8.49 55.3671 8.73C55.4871 8.87 55.5771 9.07 55.6371 9.33C55.6571 9.47 55.6671 9.64 55.6671 9.84V10.32C55.6671 10.56 55.7371 10.84 55.8771 11.16L56.0271 11.61L56.1771 12.09C56.2371 12.21 56.2871 12.36 56.3271 12.54L56.4171 12.99C56.4571 13.11 56.4971 13.23 56.5371 13.35L56.5971 13.5L56.6871 13.71L56.7471 13.92L56.7771 14.19C56.8171 14.41 56.8571 14.57 56.8971 14.67C57.0171 14.93 57.1171 15.23 57.1971 15.57L57.2871 16.02L57.3471 16.5L57.4371 16.92L57.5571 17.34L57.6771 17.85L57.7971 18.33L57.8571 18.54L57.9471 18.75C58.0071 18.91 58.0471 19.04 58.0671 19.14L58.3071 20.25L58.5171 21.27C58.6171 21.69 58.6971 22.02 58.7571 22.26L58.8171 22.38L58.8771 22.53C58.9371 22.63 59.0171 22.68 59.1171 22.68C59.2171 22.68 59.3071 22.59 59.3871 22.41L59.4471 22.17L59.4771 22.05V21.96L59.6271 21.51L59.7771 21.06L59.8971 20.58L60.0171 20.1L60.3471 19.23C60.4671 18.87 60.5671 18.57 60.6471 18.33L60.7371 17.88L60.7971 17.4C60.8571 17 60.9171 16.69 60.9771 16.47L61.2171 15.66C61.2571 15.52 61.4171 15.28 61.6971 14.94C61.8371 14.76 61.9071 14.53 61.9071 14.25L61.8771 13.89L61.8471 13.5C61.8471 13.32 61.8871 13.08 61.9671 12.78L62.0871 12.42L62.1771 12.09C62.2371 11.75 62.2771 11.44 62.2971 11.16C62.2971 10.88 62.3571 10.58 62.4771 10.26C62.5371 10.14 62.5871 9.98 62.6271 9.78L62.7471 9.27C62.8471 8.95 62.9871 8.7 63.1671 8.52C63.2471 8.44 63.3371 8.38 63.4371 8.34C63.5371 8.28 63.6471 8.25 63.7671 8.25C63.8271 8.25 63.9271 8.27 64.0671 8.31L64.2471 8.37L64.4571 8.4L64.6371 8.43L64.8471 8.46C65.0271 8.46 65.1371 8.47 65.1771 8.49C65.5371 8.55 65.7171 8.71 65.7171 8.97C65.7171 9.07 65.6871 9.19 65.6271 9.33L65.5371 9.51L65.4771 9.66L65.3871 10.11L65.2971 10.56C65.1771 11.28 65.0171 11.93 64.8171 12.51L64.6671 12.9L64.5471 13.32L64.4571 13.8L64.3371 14.31L64.1871 14.7L64.0071 15.09C63.9271 15.33 63.8371 15.65 63.7371 16.05L63.5271 16.98L63.3471 17.88L63.2571 18.36L63.1671 18.81C63.0271 19.21 62.9371 19.5 62.8971 19.68L62.8671 19.89L62.8371 20.1C62.8171 20.3 62.7971 20.45 62.7771 20.55C62.7571 20.65 62.6971 20.8 62.5971 21L62.4771 21.24L62.3871 21.48L62.1171 22.47L62.0571 22.71L61.9971 22.92L61.8771 23.13L61.7571 23.34L61.7271 23.52L61.7571 23.82L61.7871 24.12C61.7871 24.46 61.7171 24.76 61.5771 25.02C61.4371 25.28 61.3471 25.52 61.3071 25.74V25.95L61.2771 26.19C61.2771 26.35 61.2371 26.48 61.1571 26.58C61.0771 26.68 60.9571 26.75 60.7971 26.79L60.5871 26.82L60.3771 26.85L59.9871 26.94C59.8271 26.98 59.6971 27 59.5971 27ZM64.5771 9.9C64.6571 9.9 64.7171 9.87 64.7571 9.81C64.8171 9.77 64.8471 9.7 64.8471 9.6C64.8471 9.54 64.8271 9.48 64.7871 9.42C64.7271 9.38 64.6671 9.36 64.6071 9.36C64.4271 9.36 64.3371 9.46 64.3371 9.66C64.3371 9.74 64.3671 9.8 64.4271 9.84C64.4671 9.88 64.5171 9.9 64.5771 9.9ZM57.7671 25.05C57.8671 25.05 57.9571 24.99 58.0371 24.87C58.0971 24.77 58.1271 24.66 58.1271 24.54C58.1271 24.44 58.0971 24.35 58.0371 24.27C57.9571 24.19 57.8671 24.15 57.7671 24.15C57.6671 24.15 57.5771 24.19 57.4971 24.27C57.4171 24.37 57.3771 24.47 57.3771 24.57C57.3771 24.71 57.4271 24.83 57.5271 24.93C57.6071 25.01 57.6871 25.05 57.7671 25.05ZM76.8443 27C76.6843 27 76.5443 26.99 76.4243 26.97L76.1243 26.91L75.8243 26.88C75.5243 26.8 75.3743 26.58 75.3743 26.22C75.3743 25.92 75.4143 25.63 75.4943 25.35C75.5543 25.15 75.7943 24.95 76.2143 24.75C76.2943 24.71 76.3843 24.63 76.4843 24.51C76.5643 24.39 76.6043 24.29 76.6043 24.21C76.6043 24.15 76.5843 24.1 76.5443 24.06C76.5043 24 76.4443 23.97 76.3643 23.97L76.2143 24L76.0643 24.03C75.9643 24.09 75.8743 24.12 75.7943 24.12C75.6343 24.12 75.5143 23.98 75.4343 23.7C75.4143 23.6 75.3943 23.48 75.3743 23.34C75.3543 23.24 75.3443 23.13 75.3443 23.01C75.3443 22.81 75.3543 22.55 75.3743 22.23L75.4043 21.84L75.4343 21.48L75.4043 21.24V21C75.3843 20.78 75.3743 20.63 75.3743 20.55C75.3743 20.41 75.3943 20.2 75.4343 19.92C75.4543 19.66 75.4643 19.46 75.4643 19.32V18.84C75.4443 18.62 75.4343 18.46 75.4343 18.36C75.4343 18.18 75.4443 17.88 75.4643 17.46V16.98L75.4943 16.56L75.4643 15.75L75.4343 15.36V15.03C75.4343 14.75 75.4443 14.44 75.4643 14.1C75.5043 13.78 75.5243 13.46 75.5243 13.14L75.4943 12.6L75.4343 12.06C75.4143 11.66 75.4043 11.29 75.4043 10.95L75.4343 10.38C75.4543 10.14 75.4643 9.97 75.4643 9.87V9.63L75.4343 9.39C75.4343 9.27 75.4443 9.16 75.4643 9.06C75.4843 8.92 75.5243 8.82 75.5843 8.76C75.6443 8.68 75.7743 8.61 75.9743 8.55L76.2443 8.52L76.4843 8.49H77.0843L77.4743 8.52L77.6543 8.55H77.8343C78.0143 8.57 78.1243 8.66 78.1643 8.82C78.1843 8.94 78.2043 9.11 78.2243 9.33C78.2443 9.53 78.2543 9.74 78.2543 9.96C78.2543 10.16 78.2243 10.36 78.1643 10.56L78.1343 10.71L78.1043 10.83C78.0643 10.91 78.0443 10.98 78.0443 11.04C78.0443 11.12 78.0643 11.21 78.1043 11.31L78.2243 11.55C78.2843 11.71 78.3143 11.89 78.3143 12.09L78.2843 12.48V12.84L78.3143 14.34L78.2843 15.09L78.2543 15.78C78.1943 16.4 78.1643 16.8 78.1643 16.98C78.1643 17.18 78.1743 17.42 78.1943 17.7L78.2243 17.97V18.21C78.2243 18.33 78.2143 18.44 78.1943 18.54L78.1643 18.84C78.1443 19.1 78.1343 19.32 78.1343 19.5L78.1643 20.28V21.09C78.1643 21.19 78.1543 21.41 78.1343 21.75C78.1143 22.09 78.1043 22.33 78.1043 22.47C78.1043 22.85 78.1443 23.41 78.2243 24.15L78.2543 24.42L78.2843 24.69C78.2843 24.89 78.2443 25.07 78.1643 25.23L78.0443 25.44L77.9243 25.65L77.8943 25.8L77.9243 25.98L77.9843 26.16C78.0243 26.3 78.0443 26.4 78.0443 26.46C78.0443 26.64 77.9143 26.77 77.6543 26.85C77.2943 26.95 77.0243 27 76.8443 27ZM76.6043 12.6C76.8043 12.6 76.9043 12.49 76.9043 12.27C76.9043 12.13 76.8543 12 76.7543 11.88C76.6743 11.74 76.5643 11.67 76.4243 11.67C76.3243 11.67 76.2443 11.72 76.1843 11.82C76.1243 11.9 76.0943 11.99 76.0943 12.09C76.0943 12.43 76.2643 12.6 76.6043 12.6ZM89.7241 27C89.5241 27 89.3841 26.92 89.3041 26.76C89.2641 26.7 89.2341 26.61 89.2141 26.49L89.1841 26.22C89.1241 26 89.0941 25.81 89.0941 25.65C89.0941 25.51 89.1041 25.35 89.1241 25.17C89.1641 24.97 89.1841 24.8 89.1841 24.66V24.48L89.1541 24.27V23.13L89.1241 22.35L89.1541 21.93L89.1841 21.51C89.2241 21.13 89.2441 20.84 89.2441 20.64C89.2441 20.46 89.2241 20.19 89.1841 19.83L89.1241 19.44L89.0941 19.05C89.0941 18.93 89.1041 18.75 89.1241 18.51C89.1641 18.27 89.1841 18.12 89.1841 18.06C89.1841 17.96 89.1741 17.85 89.1541 17.73V17.13C89.1741 16.99 89.1841 16.9 89.1841 16.86L89.1541 16.62L89.1241 16.38C89.0841 16.14 89.0641 15.97 89.0641 15.87L89.0941 15.51L89.1541 15.12C89.1941 14.98 89.2141 14.8 89.2141 14.58V14.04L89.2441 13.02L89.1841 12.36L89.1241 11.67C89.0641 11.23 89.0341 10.84 89.0341 10.5L89.0641 9.93C89.0641 9.71 89.0841 9.52 89.1241 9.36L89.1541 9.18L89.2141 8.97C89.2741 8.83 89.3541 8.72 89.4541 8.64C89.5741 8.56 89.7441 8.52 89.9641 8.52L90.2941 8.55L90.5641 8.58H91.0741C91.2941 8.6 91.4641 8.63 91.5841 8.67C91.7041 8.75 91.7841 8.88 91.8241 9.06L91.8841 9.3V11.61C91.8841 11.81 91.8741 12.04 91.8541 12.3L91.8241 13.02C91.8041 13.64 91.7941 14.01 91.7941 14.13L91.8241 14.64V15.51L91.7941 15.87C91.7941 16.07 91.8241 16.24 91.8841 16.38C91.9241 16.52 91.9941 16.59 92.0941 16.59C92.2141 16.59 92.3441 16.5 92.4841 16.32L92.8441 15.84L93.1441 15.33C93.2241 15.23 93.3341 15.11 93.4741 14.97L93.8041 14.64C93.8841 14.52 93.9741 14.36 94.0741 14.16L94.1941 13.89L94.3141 13.65L94.4641 13.44L94.6441 13.26C94.7841 13.1 94.8841 12.97 94.9441 12.87L95.2141 12.45C95.3141 12.27 95.4041 12.13 95.4841 12.03C95.7441 11.71 95.9741 11.5 96.1741 11.4C96.6541 11.12 96.8941 10.85 96.8941 10.59L96.8641 10.38V10.2C96.8641 10.06 96.8941 9.94 96.9541 9.84C97.1341 9.46 97.3441 9.16 97.5841 8.94C97.8241 8.72 98.1641 8.61 98.6041 8.61H99.0541L99.5041 8.64L99.8941 8.61H100.284C100.644 8.61 100.824 8.69 100.824 8.85C100.824 8.93 100.764 9.06 100.644 9.24C100.484 9.46 100.284 9.77 100.044 10.17L99.7441 10.65L99.4441 11.13L99.1741 11.52L98.8741 11.88C98.6341 12.18 98.4541 12.43 98.3341 12.63L98.1841 12.9L98.0641 13.11C97.9841 13.27 97.9041 13.4 97.8241 13.5L97.4341 13.98L97.0741 14.46C96.9541 14.62 96.8541 14.77 96.7741 14.91L96.6841 15.18L96.5641 15.42L96.3841 15.6L96.2341 15.78C96.1341 15.92 96.0841 16.09 96.0841 16.29C96.0841 16.43 96.1041 16.57 96.1441 16.71L96.3841 17.19C96.5041 17.41 96.5841 17.58 96.6241 17.7L96.8341 18.21C96.9341 18.41 97.0041 18.58 97.0441 18.72C97.0641 18.78 97.0741 18.84 97.0741 18.9C97.0741 19 97.0241 19.14 96.9241 19.32C96.8241 19.5 96.7741 19.62 96.7741 19.68C96.7741 19.76 96.8341 19.8 96.9541 19.8C97.0341 19.8 97.1341 19.79 97.2541 19.77C97.3741 19.73 97.4541 19.71 97.4941 19.71C97.6141 19.71 97.7141 19.77 97.7941 19.89L97.9141 20.07L98.0041 20.25L98.1241 20.49L98.2741 20.7C98.3941 20.88 98.4741 21.03 98.5141 21.15L98.6041 21.39L98.6641 21.63C98.7241 21.83 98.7741 21.99 98.8141 22.11L98.9641 22.32L99.0841 22.56C99.2041 22.74 99.2941 22.89 99.3541 23.01L99.4441 23.25L99.5641 23.49C99.6241 23.69 99.7041 23.84 99.8041 23.94L99.9841 24.15L100.134 24.33C100.234 24.47 100.314 24.6 100.374 24.72L100.494 25.2C100.554 25.38 100.614 25.54 100.674 25.68L100.794 25.92L100.914 26.16C100.974 26.26 101.004 26.37 101.004 26.49C100.984 26.73 100.844 26.85 100.584 26.85H100.374L100.164 26.82C100.084 26.82 99.9841 26.83 99.8641 26.85L99.5041 26.91C99.2041 26.95 98.9841 26.97 98.8441 26.97C98.6841 26.97 98.5641 26.94 98.4841 26.88C98.3841 26.82 98.2941 26.71 98.2141 26.55L98.1241 26.34L98.0041 26.13C97.7841 25.83 97.6341 25.56 97.5541 25.32C97.4941 25.2 97.4141 25.05 97.3141 24.87L97.1941 24.63L97.0741 24.39L96.9541 24.12L96.8341 23.85C96.7541 23.65 96.6641 23.49 96.5641 23.37L96.2341 22.89C96.1141 22.71 96.0241 22.55 95.9641 22.41L95.7241 21.9L95.5141 21.39C95.3541 20.99 95.1941 20.67 95.0341 20.43C94.9941 20.39 94.9441 20.3 94.8841 20.16L94.7641 19.95L94.6741 19.74C94.4741 19.36 94.2941 19.17 94.1341 19.17C94.0141 19.17 93.9041 19.24 93.8041 19.38C93.7241 19.46 93.6341 19.6 93.5341 19.8L93.3841 20.01L93.2641 20.22C93.0841 20.44 92.8541 20.74 92.5741 21.12L92.3941 21.33L92.2441 21.51C92.1041 21.67 92.0041 21.81 91.9441 21.93C91.8641 22.11 91.8041 22.33 91.7641 22.59L91.7341 22.92V23.25L91.7641 23.46V23.7C91.8041 23.9 91.8241 24.04 91.8241 24.12C91.8241 24.3 91.8141 24.5 91.7941 24.72L91.7641 24.99L91.7341 25.26L91.7641 25.47V25.71C91.7841 25.91 91.7941 26.07 91.7941 26.19C91.7941 26.67 91.5941 26.91 91.1941 26.91H90.7141L90.5641 26.88L90.2341 26.91L89.9941 26.97L89.7241 27ZM90.8941 14.49C90.9941 14.49 91.0941 14.44 91.1941 14.34C91.3141 14.24 91.3741 14.14 91.3741 14.04C91.3741 13.96 91.3341 13.9 91.2541 13.86C91.1741 13.82 91.0941 13.8 91.0141 13.8C90.8941 13.8 90.7941 13.85 90.7141 13.95C90.6341 14.03 90.5941 14.12 90.5941 14.22C90.5941 14.3 90.6241 14.36 90.6841 14.4C90.7441 14.46 90.8141 14.49 90.8941 14.49ZM90.0241 25.47C90.1841 25.47 90.2641 25.33 90.2641 25.05C90.2641 24.95 90.2441 24.87 90.2041 24.81C90.1641 24.73 90.1041 24.69 90.0241 24.69C89.9241 24.69 89.8341 24.73 89.7541 24.81C89.6941 24.87 89.6641 24.95 89.6641 25.05C89.6641 25.15 89.7041 25.25 89.7841 25.35C89.8441 25.43 89.9241 25.47 90.0241 25.47ZM116.401 26.97L116.071 26.91C115.791 26.85 115.571 26.82 115.411 26.82C115.271 26.82 115.051 26.84 114.751 26.88C114.451 26.92 114.231 26.94 114.091 26.94C113.751 26.94 113.281 26.84 112.681 26.64C111.861 26.32 111.241 25.72 110.821 24.84L110.641 24.51L110.461 24.21C110.321 23.95 110.221 23.75 110.161 23.61C110.041 23.37 109.981 23.13 109.981 22.89C109.981 22.71 109.991 22.53 110.011 22.35C110.031 22.23 110.041 22.1 110.041 21.96C110.101 21.64 110.131 21.41 110.131 21.27C110.131 21.01 110.111 20.62 110.071 20.1L110.041 19.5L110.011 18.93C110.011 18.73 110.031 18.44 110.071 18.06C110.111 17.68 110.131 17.39 110.131 17.19V16.59L110.071 15.96L110.011 15.42L109.981 14.85V14.4C110.001 14.2 110.011 14.03 110.011 13.89L109.981 13.62L109.951 13.38C109.931 13.16 109.921 12.99 109.921 12.87V12.63L109.951 12.42L110.071 12.12L110.161 11.82C110.241 11.62 110.351 11.4 110.491 11.16L110.851 10.5C111.071 10.08 111.311 9.75 111.571 9.51C111.711 9.37 111.891 9.25 112.111 9.15L112.411 9.03L112.711 8.91L112.981 8.79L113.221 8.67C113.421 8.57 113.591 8.51 113.731 8.49L114.271 8.4L114.811 8.37C114.991 8.37 115.271 8.4 115.651 8.46L116.101 8.52L116.521 8.55L117.061 8.52L117.601 8.49C118.621 8.49 119.481 8.7 120.181 9.12C120.641 9.38 120.981 9.63 121.201 9.87C121.541 10.21 121.801 10.61 121.981 11.07C122.101 11.41 122.201 11.81 122.281 12.27C122.301 12.41 122.311 12.58 122.311 12.78V14.52L122.341 15.36C122.341 15.48 122.331 15.66 122.311 15.9L122.281 16.17V16.41C122.281 16.55 122.291 16.74 122.311 16.98C122.331 17.22 122.341 17.41 122.341 17.55C122.341 17.71 122.321 17.93 122.281 18.21L122.251 18.57V18.9C122.251 19.02 122.271 19.2 122.311 19.44L122.371 19.71L122.401 19.98C122.401 20.08 122.361 20.24 122.281 20.46L122.221 20.73L122.191 21C122.191 21.14 122.211 21.31 122.251 21.51V21.69L122.281 21.87L122.251 22.23V23.34C122.231 23.44 122.181 23.56 122.101 23.7L121.951 24.03L121.831 24.36L121.711 24.63C121.611 24.85 121.511 25.04 121.411 25.2C121.131 25.58 120.791 25.9 120.391 26.16C119.671 26.64 118.941 26.88 118.201 26.88H117.751C117.591 26.88 117.421 26.9 117.241 26.94C117.041 26.98 116.871 27 116.731 27L116.401 26.97ZM117.481 24.24C118.221 24.24 118.731 24.13 119.011 23.91C119.091 23.83 119.171 23.73 119.251 23.61L119.341 23.43L119.431 23.25C119.551 23.09 119.611 22.91 119.611 22.71C119.611 22.57 119.601 22.28 119.581 21.84L119.551 21.33V20.82L119.521 20.04L119.491 19.26L119.521 18.84L119.551 18.45C119.591 18.11 119.611 17.87 119.611 17.73L119.581 17.01L119.611 16.5C119.651 16.18 119.671 15.85 119.671 15.51L119.641 14.55L119.581 14.01L119.521 13.47L119.551 13.11L119.581 12.78C119.581 12.64 119.551 12.5 119.491 12.36L119.401 12.18L119.281 11.97L119.191 11.76L119.071 11.58C118.991 11.44 118.881 11.33 118.741 11.25C118.581 11.15 118.371 11.1 118.111 11.1C117.971 11.1 117.781 11.12 117.541 11.16L117.241 11.19L116.971 11.22C116.691 11.26 116.441 11.28 116.221 11.28L115.741 11.25L115.321 11.19C114.961 11.13 114.771 11.1 114.751 11.1C114.631 11.1 114.511 11.12 114.391 11.16L113.971 11.31C113.811 11.35 113.681 11.4 113.581 11.46C113.381 11.58 113.191 11.8 113.011 12.12C112.891 12.36 112.791 12.63 112.711 12.93C112.691 13.05 112.681 13.18 112.681 13.32V13.5L112.711 13.68V14.46L112.681 14.85C112.661 15.17 112.651 15.4 112.651 15.54L112.681 16.68L112.711 17.64V18.09C112.711 18.23 112.701 18.35 112.681 18.45L112.591 18.57L112.501 18.72C112.441 18.86 112.411 18.98 112.411 19.08C112.411 19.18 112.451 19.3 112.531 19.44C112.611 19.58 112.651 19.71 112.651 19.83L112.621 20.22L112.591 20.43V20.64L112.621 20.88L112.651 21.09C112.691 21.31 112.711 21.47 112.711 21.57V22.14L112.741 22.71C112.761 23.03 112.871 23.32 113.071 23.58C113.291 23.84 113.571 24.02 113.911 24.12C114.191 24.2 114.521 24.24 114.901 24.24C115.081 24.24 115.291 24.23 115.531 24.21H116.791L117.181 24.24H117.481ZM111.511 22.32C111.611 22.32 111.701 22.27 111.781 22.17C111.861 22.09 111.901 21.99 111.901 21.87C111.901 21.57 111.771 21.42 111.511 21.42C111.391 21.42 111.291 21.47 111.211 21.57C111.151 21.65 111.121 21.75 111.121 21.87C111.121 22.17 111.251 22.32 111.511 22.32ZM138.321 27C138.181 27 137.981 26.97 137.721 26.91C137.461 26.87 137.271 26.85 137.151 26.85H136.971L136.821 26.88H136.521C136.361 26.88 136.211 26.82 136.071 26.7C135.971 26.6 135.881 26.46 135.801 26.28C135.721 26.14 135.651 25.97 135.591 25.77L135.531 25.5L135.471 25.29C135.391 25.07 135.311 24.75 135.231 24.33L135.021 23.37L134.871 22.86L134.691 22.32C134.591 21.96 134.541 21.65 134.541 21.39C134.521 21.17 134.461 20.89 134.361 20.55C134.341 20.47 134.281 20.32 134.181 20.1L134.091 19.86L134.001 19.62C133.961 19.46 133.901 19.16 133.821 18.72L133.731 18.18L133.611 17.64C133.551 17.4 133.451 17.08 133.311 16.68L132.981 15.72L132.921 15.3L132.831 14.88L132.711 14.46L132.561 14.04L132.471 13.53L132.351 13.08L132.231 12.66L132.111 12.24L131.991 11.7L131.931 11.46L131.901 11.19L131.751 10.74L131.601 10.29L131.361 9.33L131.301 9.15L131.271 8.94C131.271 8.66 131.441 8.52 131.781 8.52L132.021 8.55L132.261 8.58C132.401 8.58 132.571 8.56 132.771 8.52L133.281 8.4L133.491 8.37C133.751 8.37 133.951 8.49 134.091 8.73C134.211 8.87 134.301 9.07 134.361 9.33C134.381 9.47 134.391 9.64 134.391 9.84V10.32C134.391 10.56 134.461 10.84 134.601 11.16L134.751 11.61L134.901 12.09C134.961 12.21 135.011 12.36 135.051 12.54L135.141 12.99C135.181 13.11 135.221 13.23 135.261 13.35L135.321 13.5L135.411 13.71L135.471 13.92L135.501 14.19C135.541 14.41 135.581 14.57 135.621 14.67C135.741 14.93 135.841 15.23 135.921 15.57L136.011 16.02L136.071 16.5L136.161 16.92L136.281 17.34L136.401 17.85L136.521 18.33L136.581 18.54L136.671 18.75C136.731 18.91 136.771 19.04 136.791 19.14L137.031 20.25L137.241 21.27C137.341 21.69 137.421 22.02 137.481 22.26L137.541 22.38L137.601 22.53C137.661 22.63 137.741 22.68 137.841 22.68C137.941 22.68 138.031 22.59 138.111 22.41L138.171 22.17L138.201 22.05V21.96L138.351 21.51L138.501 21.06L138.621 20.58L138.741 20.1L139.071 19.23C139.191 18.87 139.291 18.57 139.371 18.33L139.461 17.88L139.521 17.4C139.581 17 139.641 16.69 139.701 16.47L139.941 15.66C139.981 15.52 140.141 15.28 140.421 14.94C140.561 14.76 140.631 14.53 140.631 14.25L140.601 13.89L140.571 13.5C140.571 13.32 140.611 13.08 140.691 12.78L140.811 12.42L140.901 12.09C140.961 11.75 141.001 11.44 141.021 11.16C141.021 10.88 141.081 10.58 141.201 10.26C141.261 10.14 141.311 9.98 141.351 9.78L141.471 9.27C141.571 8.95 141.711 8.7 141.891 8.52C141.971 8.44 142.061 8.38 142.161 8.34C142.261 8.28 142.371 8.25 142.491 8.25C142.551 8.25 142.651 8.27 142.791 8.31L142.971 8.37L143.181 8.4L143.361 8.43L143.571 8.46C143.751 8.46 143.861 8.47 143.901 8.49C144.261 8.55 144.441 8.71 144.441 8.97C144.441 9.07 144.411 9.19 144.351 9.33L144.261 9.51L144.201 9.66L144.111 10.11L144.021 10.56C143.901 11.28 143.741 11.93 143.541 12.51L143.391 12.9L143.271 13.32L143.181 13.8L143.061 14.31L142.911 14.7L142.731 15.09C142.651 15.33 142.561 15.65 142.461 16.05L142.251 16.98L142.071 17.88L141.981 18.36L141.891 18.81C141.751 19.21 141.661 19.5 141.621 19.68L141.591 19.89L141.561 20.1C141.541 20.3 141.521 20.45 141.501 20.55C141.481 20.65 141.421 20.8 141.321 21L141.201 21.24L141.111 21.48L140.841 22.47L140.781 22.71L140.721 22.92L140.601 23.13L140.481 23.34L140.451 23.52L140.481 23.82L140.511 24.12C140.511 24.46 140.441 24.76 140.301 25.02C140.161 25.28 140.071 25.52 140.031 25.74V25.95L140.001 26.19C140.001 26.35 139.961 26.48 139.881 26.58C139.801 26.68 139.681 26.75 139.521 26.79L139.311 26.82L139.101 26.85L138.711 26.94C138.551 26.98 138.421 27 138.321 27ZM143.301 9.9C143.381 9.9 143.441 9.87 143.481 9.81C143.541 9.77 143.571 9.7 143.571 9.6C143.571 9.54 143.551 9.48 143.511 9.42C143.451 9.38 143.391 9.36 143.331 9.36C143.151 9.36 143.061 9.46 143.061 9.66C143.061 9.74 143.091 9.8 143.151 9.84C143.191 9.88 143.241 9.9 143.301 9.9ZM136.491 25.05C136.591 25.05 136.681 24.99 136.761 24.87C136.821 24.77 136.851 24.66 136.851 24.54C136.851 24.44 136.821 24.35 136.761 24.27C136.681 24.19 136.591 24.15 136.491 24.15C136.391 24.15 136.301 24.19 136.221 24.27C136.141 24.37 136.101 24.47 136.101 24.57C136.101 24.71 136.151 24.83 136.251 24.93C136.331 25.01 136.411 25.05 136.491 25.05Z" fill="#FAF9F9"/>
<path d="M34 7C34.2652 7 34.5196 7.10536 34.7071 7.29289C34.8946 7.48043 35 7.73478 35 8V11C35 11.2652 34.8946 11.5196 34.7071 11.7071C34.5196 11.8946 34.2652 12 34 12C33.7348 12 33.4804 11.8946 33.2929 11.7071C33.1054 11.5196 33 11.2652 33 11V8C33 7.73478 33.1054 7.48043 33.2929 7.29289C33.4804 7.10536 33.7348 7 34 7ZM34 22C34.2652 22 34.5196 22.1054 34.7071 22.2929C34.8946 22.4804 35 22.7348 35 23V26C35 26.2652 34.8946 26.5196 34.7071 26.7071C34.5196 26.8946 34.2652 27 34 27C33.7348 27 33.4804 26.8946 33.2929 26.7071C33.1054 26.5196 33 26.2652 33 26V23C33 22.7348 33.1054 22.4804 33.2929 22.2929C33.4804 22.1054 33.7348 22 34 22ZM44 17C44 17.2652 43.8946 17.5196 43.7071 17.7071C43.5196 17.8946 43.2652 18 43 18H40C39.7348 18 39.4804 17.8946 39.2929 17.7071C39.1054 17.5196 39 17.2652 39 17C39 16.7348 39.1054 16.4804 39.2929 16.2929C39.4804 16.1054 39.7348 16 40 16H43C43.2652 16 43.5196 16.1054 43.7071 16.2929C43.8946 16.4804 44 16.7348 44 17ZM29 17C29 17.2652 28.8946 17.5196 28.7071 17.7071C28.5196 17.8946 28.2652 18 28 18H25C24.7348 18 24.4804 17.8946 24.2929 17.7071C24.1054 17.5196 24 17.2652 24 17C24 16.7348 24.1054 16.4804 24.2929 16.2929C24.4804 16.1054 24.7348 16 25 16H28C28.2652 16 28.5196 16.1054 28.7071 16.2929C28.8946 16.4804 29 16.7348 29 17ZM41.071 24.071C40.8835 24.2585 40.6292 24.3638 40.364 24.3638C40.0988 24.3638 39.8445 24.2585 39.657 24.071L37.536 21.95C37.3538 21.7614 37.253 21.5088 37.2553 21.2466C37.2576 20.9844 37.3628 20.7336 37.5482 20.5482C37.7336 20.3628 37.9844 20.2576 38.2466 20.2553C38.5088 20.253 38.7614 20.3538 38.95 20.536L41.071 22.656C41.164 22.7489 41.2377 22.8592 41.2881 22.9806C41.3384 23.102 41.3643 23.2321 41.3643 23.3635C41.3643 23.4949 41.3384 23.625 41.2881 23.7464C41.2377 23.8678 41.164 23.9781 41.071 24.071ZM30.464 13.464C30.2765 13.6515 30.0222 13.7568 29.757 13.7568C29.4918 13.7568 29.2375 13.6515 29.05 13.464L26.93 11.344C26.7424 11.1565 26.6369 10.9021 26.6368 10.6369C26.6367 10.3716 26.742 10.1171 26.9295 9.9295C27.117 9.74186 27.3714 9.63639 27.6366 9.6363C27.9019 9.6362 28.1564 9.74149 28.344 9.929L30.464 12.05C30.6515 12.2375 30.7568 12.4918 30.7568 12.757C30.7568 13.0222 30.6515 13.2765 30.464 13.464ZM26.93 24.071C26.7425 23.8835 26.6372 23.6292 26.6372 23.364C26.6372 23.0988 26.7425 22.8445 26.93 22.657L29.051 20.536C29.1432 20.4405 29.2536 20.3643 29.3756 20.3119C29.4976 20.2595 29.6288 20.2319 29.7616 20.2307C29.8944 20.2296 30.0261 20.2549 30.149 20.3052C30.2719 20.3555 30.3835 20.4297 30.4774 20.5236C30.5713 20.6175 30.6455 20.7291 30.6958 20.852C30.7461 20.9749 30.7714 21.1066 30.7703 21.2394C30.7691 21.3722 30.7415 21.5034 30.6891 21.6254C30.6367 21.7474 30.5605 21.8578 30.465 21.95L28.345 24.071C28.2521 24.164 28.1418 24.2377 28.0204 24.2881C27.899 24.3384 27.7689 24.3643 27.6375 24.3643C27.5061 24.3643 27.376 24.3384 27.2546 24.2881C27.1332 24.2377 27.0229 24.164 26.93 24.071ZM37.536 13.464C37.3485 13.2765 37.2432 13.0222 37.2432 12.757C37.2432 12.4918 37.3485 12.2375 37.536 12.05L39.656 9.929C39.8435 9.74136 40.0979 9.63589 40.3631 9.6358C40.6284 9.6357 40.8829 9.74099 41.0705 9.9285C41.2581 10.116 41.3636 10.3704 41.3637 10.6356C41.3638 10.9009 41.2585 11.1554 41.071 11.343L38.95 13.464C38.7625 13.6515 38.5082 13.7568 38.243 13.7568C37.9778 13.7568 37.7235 13.6515 37.536 13.464Z" fill="#FAF9F9"/>
</svg>
